<svg xmlns="http://www.w3.org/2000/svg" fill="none" viewBox="0 0 64 64">
  <g clip-path="url(#a)">
    <path fill="#fff" d="M52 0H12C5.373 0 0 5.373 0 12v40c0 6.627 5.373 12 12 12h40c6.627 0 12-5.373 12-12V12c0-6.627-5.373-12-12-12Z"/>
    <path fill="#00A7E1" d="M31.175 53.677c-4.161 0-8.25 0-13.175.19.19-3.588.376-7.898.376-12.972V22.957c0-5.059-.185-9.37-.376-12.957h6.306c-.129 3.588-.443 7.898-.443 12.972V40.91c0 2.506 0 4.823.19 7.519.135 1.676 1.073 2.368 3.229 2.368 5.11 0 11.917-.38 17.78-.882.696-.061 1.03 0 .948.318l-.758 3.075c-.129.564-.129.748-.629.687-5.043-.313-8.89-.313-13.407-.313"/>
  </g>
  <defs>
    <clipPath id="a">
      <path fill="#fff" d="M0 0h64v64H0z"/>
    </clipPath>
  </defs>
</svg>